<?xml version="1.0" encoding="utf-8"?>
<!-- Generator: Adobe Illustrator 24.1.1, SVG Export Plug-In . SVG Version: 6.00 Build 0)  -->
<svg version="1.1" id="Layer_1" xmlns="http://www.w3.org/2000/svg" xmlns:xlink="http://www.w3.org/1999/xlink" x="0px" y="0px"
	 viewBox="0 0 19 19" style="enable-background:new 0 0 19 19;" xml:space="preserve">
<style type="text/css">
	.st0{fill-rule:evenodd;clip-rule:evenodd;fill:#2848C6;}
	.st1{fill-rule:evenodd;clip-rule:evenodd;fill:#FFD012;}
</style>
<path class="st0" d="M19,9.5c0,0.4,0,0.9-0.1,1.3L8.2,0.1C8.6,0,9.1,0,9.5,0C14.8,0,19,4.3,19,9.5z"/>
<path class="st0" d="M17.9,14c-0.3,0.6-0.7,1.1-1.1,1.6L3.4,2.3c0.5-0.4,1-0.8,1.6-1.1L17.9,14z"/>
<path class="st1" d="M14.5,17.6c-1.4,0.9-3.1,1.4-5,1.4C4.3,19,0,14.8,0,9.5c0-1.8,0.5-3.5,1.4-5L14.5,17.6z"/>
</svg>
