<svg width="19" height="19" viewBox="0 0 19 19" fill="none" xmlns="http://www.w3.org/2000/svg">
<path fill-rule="evenodd" clip-rule="evenodd" d="M5.0065 1.12781C4.42016 1.44317 3.87076 1.81832 3.36645 2.24511L16.7549 15.6336C17.1817 15.1292 17.5568 14.5798 17.8722 13.9935L5.0065 1.12781ZM18.9129 10.7916C18.9703 10.3693 19 9.93809 19 9.5C19 4.25329 14.7467 0 9.5 0C9.06191 0 8.63074 0.0296539 8.2084 0.0870639L18.9129 10.7916ZM9.5 19C11.3237 19 13.0273 18.4861 14.474 17.5953L1.40467 4.52597C0.513852 5.9727 0 7.67634 0 9.5C0 14.7467 4.25329 19 9.5 19Z" fill="#2848C6"/>
</svg>
