<svg id="Layer_1" data-name="Layer 1" xmlns="http://www.w3.org/2000/svg" viewBox="0 0 147.39 19"><defs><style>.cls-1,.cls-4{fill:#2848c6;}.cls-1,.cls-2{fill-rule:evenodd;}.cls-2{fill:#ffd012;}.cls-3{fill:#373737;}</style></defs><path class="cls-1" d="M20.3,10.5a5.7,5.7,0,0,1-.1,1.3L9.5,1.1A5.7,5.7,0,0,1,10.8,1,9.5,9.5,0,0,1,20.3,10.5Z" transform="translate(-1.3 -1)"/><path class="cls-1" d="M19.2,15a9.06,9.06,0,0,1-1.1,1.6L4.7,3.3A9.06,9.06,0,0,1,6.3,2.2Z" transform="translate(-1.3 -1)"/><path class="cls-2" d="M15.8,18.6a9.15,9.15,0,0,1-5,1.4,9.5,9.5,0,0,1-9.5-9.5,9.66,9.66,0,0,1,1.4-5Z" transform="translate(-1.3 -1)"/><path class="cls-3" d="M36.47,12.08a1.94,1.94,0,0,0,.82,1.44,3.82,3.82,0,0,0,2,.44A4.76,4.76,0,0,0,41,13.74c.38-.16.57-.38.57-.67a.65.65,0,0,0-.32-.55,3.55,3.55,0,0,0-1.13-.44c-.53-.13-1.3-.27-2.31-.43a6.34,6.34,0,0,1-3.17-1.28,3.09,3.09,0,0,1-1-2.44A2.91,2.91,0,0,1,34.18,6,4,4,0,0,1,36,4.79a8,8,0,0,1,2.8-.45,8.13,8.13,0,0,1,3.84.85,4.11,4.11,0,0,1,2.09,2.27L41.24,8.74a1.76,1.76,0,0,0-.78-1.26A3,3,0,0,0,38.72,7a3.48,3.48,0,0,0-1.46.24.69.69,0,0,0-.49.65.65.65,0,0,0,.29.52,3.54,3.54,0,0,0,1,.41c.48.12,1.17.25,2.07.4a7.35,7.35,0,0,1,3.52,1.28,3.09,3.09,0,0,1,1.07,2.53,3,3,0,0,1-1.5,2.65,7.91,7.91,0,0,1-4.21.94,9.07,9.07,0,0,1-4.19-.85,3.77,3.77,0,0,1-2-2.39Zm13.58,4.36H46.77V4.56h3.28Zm14.66,0H61.43l-.86-2.38H55.69l-.87,2.38H51.55L56,4.56h4.18ZM58.12,7.33,56.46,11.9h3.31ZM73,4.56a5.29,5.29,0,0,1,3.54,1,3.77,3.77,0,0,1,1.21,3.05,3.82,3.82,0,0,1-1.21,3.06,5.29,5.29,0,0,1-3.54,1h-3.5v3.69H66.2V4.56Zm-.63,6c1.36,0,2-.55,2-1.66s-.69-1.65-2-1.65H69.47v3.31Z" transform="translate(-1.3 -1)"/><path class="cls-4" d="M85,13l2.88-8.42h3.44L87.12,16.44H82.94L78.71,4.56h3.44Zm18.47,3.46h-3.27l-.87-2.38H94.48l-.86,2.38H90.34L94.83,4.56H99ZM96.91,7.33,95.26,11.9h3.31Zm20.21,9.11h-3.88l-3.53-4.55-1.44,1.47v3.08H105V4.56h3.28V9.08l4.43-4.52h4.21l-5,5.11Zm3.3-4.36a1.94,1.94,0,0,0,.83,1.44,3.75,3.75,0,0,0,2,.44,4.76,4.76,0,0,0,1.62-.22c.38-.16.58-.38.58-.67a.66.66,0,0,0-.33-.55,3.45,3.45,0,0,0-1.13-.44c-.53-.13-1.3-.27-2.31-.43a6.26,6.26,0,0,1-3.16-1.28,3.07,3.07,0,0,1-1-2.44A2.91,2.91,0,0,1,118.13,6,4.1,4.1,0,0,1,120,4.79a8,8,0,0,1,2.81-.45,8.08,8.08,0,0,1,3.83.85,4.07,4.07,0,0,1,2.09,2.27l-3.51,1.28a1.73,1.73,0,0,0-.78-1.26A3,3,0,0,0,122.67,7a3.51,3.51,0,0,0-1.46.24.7.7,0,0,0-.49.65.65.65,0,0,0,.29.52,3.67,3.67,0,0,0,1,.41c.48.12,1.17.25,2.07.4a7.44,7.44,0,0,1,3.53,1.28,3.11,3.11,0,0,1,1.06,2.53,3,3,0,0,1-1.5,2.65,7.89,7.89,0,0,1-4.21.94,9.1,9.1,0,0,1-4.19-.85,3.77,3.77,0,0,1-2-2.39ZM134,16.44h-3.27V4.56H134Zm11.51-3.85v-8h3.19V16.44h-4.18l-4.84-8v8h-3.19V4.56h4.18Z" transform="translate(-1.3 -1)"/></svg>